solid ASCII
  facet normal 3.330669e-16 1.000000e+00 -0.000000e+00
    outer loop
      vertex   -8.000000e+00 9.674768e-01 -9.826000e+00
      vertex   -8.000000e+00 9.674768e-01 9.826000e+00
      vertex   -6.000000e+00 9.674768e-01 -9.826000e+00
    endloop
  endfacet
  facet normal 3.330669e-16 1.000000e+00 -0.000000e+00
    outer loop
      vertex   -6.000000e+00 9.674768e-01 -9.826000e+00
      vertex   -8.000000e+00 9.674768e-01 9.826000e+00
      vertex   -6.000000e+00 9.674768e-01 9.826000e+00
    endloop
  endfacet
  facet normal 0.000000e+00 -1.000000e+00 0.000000e+00
    outer loop
      vertex   -6.000000e+00 2.000000e+00 -9.826000e+00
      vertex   -6.000000e+00 2.000000e+00 9.826000e+00
      vertex   -8.000000e+00 2.000000e+00 -9.826000e+00
    endloop
  endfacet
  facet normal 0.000000e+00 -1.000000e+00 0.000000e+00
    outer loop
      vertex   -8.000000e+00 2.000000e+00 -9.826000e+00
      vertex   -6.000000e+00 2.000000e+00 9.826000e+00
      vertex   -8.000000e+00 2.000000e+00 9.826000e+00
    endloop
  endfacet
  facet normal 1.000000e+00 0.000000e+00 0.000000e+00
    outer loop
      vertex   -6.000000e+00 2.000000e+00 -9.826000e+00
      vertex   -6.000000e+00 3.000000e+00 -9.826000e+00
      vertex   -6.000000e+00 2.000000e+00 9.826000e+00
    endloop
  endfacet
  facet normal 1.000000e+00 -0.000000e+00 0.000000e+00
    outer loop
      vertex   -6.000000e+00 2.000000e+00 9.826000e+00
      vertex   -6.000000e+00 3.000000e+00 -9.826000e+00
      vertex   -6.000000e+00 3.000000e+00 9.826000e+00
    endloop
  endfacet
  facet normal 0.000000e+00 0.000000e+00 -1.000000e+00
    outer loop
      vertex   -6.000000e+00 2.000000e+00 -9.826000e+00
      vertex   -8.000000e+00 2.000000e+00 -9.826000e+00
      vertex   -6.000000e+00 3.000000e+00 -9.826000e+00
    endloop
  endfacet
  facet normal -0.000000e+00 0.000000e+00 -1.000000e+00
    outer loop
      vertex   -6.000000e+00 3.000000e+00 -9.826000e+00
      vertex   -8.000000e+00 2.000000e+00 -9.826000e+00
      vertex   -9.000000e+00 3.000000e+00 -9.826000e+00
    endloop
  endfacet
  facet normal 0.000000e+00 0.000000e+00 -1.000000e+00
    outer loop
      vertex   -9.000000e+00 3.000000e+00 -9.826000e+00
      vertex   -8.000000e+00 2.000000e+00 -9.826000e+00
      vertex   -8.000000e+00 9.674768e-01 -9.826000e+00
    endloop
  endfacet
  facet normal 0.000000e+00 0.000000e+00 -1.000000e+00
    outer loop
      vertex   -9.000000e+00 3.000000e+00 -9.826000e+00
      vertex   -8.000000e+00 9.674768e-01 -9.826000e+00
      vertex   -9.000000e+00 -2.500997e+00 -9.826000e+00
    endloop
  endfacet
  facet normal 0.000000e+00 0.000000e+00 -1.000000e+00
    outer loop
      vertex   -9.000000e+00 -2.500997e+00 -9.826000e+00
      vertex   -8.000000e+00 9.674768e-01 -9.826000e+00
      vertex   -6.000000e+00 -1.832523e+00 -9.826000e+00
    endloop
  endfacet
  facet normal 0.000000e+00 0.000000e+00 -1.000000e+00
    outer loop
      vertex   -9.000000e+00 -2.500997e+00 -9.826000e+00
      vertex   -6.000000e+00 -1.832523e+00 -9.826000e+00
      vertex   -9.000000e+00 -4.000000e+00 -9.826000e+00
    endloop
  endfacet
  facet normal 0.000000e+00 0.000000e+00 -1.000000e+00
    outer loop
      vertex   -9.000000e+00 -4.000000e+00 -9.826000e+00
      vertex   -6.000000e+00 -1.832523e+00 -9.826000e+00
      vertex   6.000000e+00 -1.832523e+00 -9.826000e+00
    endloop
  endfacet
  facet normal 0.000000e+00 0.000000e+00 -1.000000e+00
    outer loop
      vertex   -9.000000e+00 -4.000000e+00 -9.826000e+00
      vertex   6.000000e+00 -1.832523e+00 -9.826000e+00
      vertex   9.000000e+00 -2.500997e+00 -9.826000e+00
    endloop
  endfacet
  facet normal 0.000000e+00 0.000000e+00 -1.000000e+00
    outer loop
      vertex   9.000000e+00 -2.500997e+00 -9.826000e+00
      vertex   6.000000e+00 -1.832523e+00 -9.826000e+00
      vertex   8.000000e+00 9.674768e-01 -9.826000e+00
    endloop
  endfacet
  facet normal 0.000000e+00 0.000000e+00 -1.000000e+00
    outer loop
      vertex   9.000000e+00 -2.500997e+00 -9.826000e+00
      vertex   8.000000e+00 9.674768e-01 -9.826000e+00
      vertex   9.000000e+00 3.000000e+00 -9.826000e+00
    endloop
  endfacet
  facet normal 0.000000e+00 0.000000e+00 -1.000000e+00
    outer loop
      vertex   9.000000e+00 3.000000e+00 -9.826000e+00
      vertex   8.000000e+00 9.674768e-01 -9.826000e+00
      vertex   8.000000e+00 2.000000e+00 -9.826000e+00
    endloop
  endfacet
  facet normal -0.000000e+00 0.000000e+00 -1.000000e+00
    outer loop
      vertex   9.000000e+00 3.000000e+00 -9.826000e+00
      vertex   8.000000e+00 2.000000e+00 -9.826000e+00
      vertex   6.000000e+00 3.000000e+00 -9.826000e+00
    endloop
  endfacet
  facet normal 0.000000e+00 0.000000e+00 -1.000000e+00
    outer loop
      vertex   6.000000e+00 3.000000e+00 -9.826000e+00
      vertex   8.000000e+00 2.000000e+00 -9.826000e+00
      vertex   6.000000e+00 2.000000e+00 -9.826000e+00
    endloop
  endfacet
  facet normal 0.000000e+00 0.000000e+00 -1.000000e+00
    outer loop
      vertex   -8.000000e+00 9.674768e-01 -9.826000e+00
      vertex   -6.000000e+00 9.674768e-01 -9.826000e+00
      vertex   -6.000000e+00 -1.832523e+00 -9.826000e+00
    endloop
  endfacet
  facet normal 0.000000e+00 0.000000e+00 -1.000000e+00
    outer loop
      vertex   6.000000e+00 -1.832523e+00 -9.826000e+00
      vertex   6.000000e+00 9.674768e-01 -9.826000e+00
      vertex   8.000000e+00 9.674768e-01 -9.826000e+00
    endloop
  endfacet
  facet normal -0.000000e+00 -0.000000e+00 -1.000000e+00
    outer loop
      vertex   1.400000e+01 -2.500997e+00 -9.826000e+00
      vertex   1.400000e+01 -4.032523e+00 -9.826000e+00
      vertex   9.000000e+00 -2.500997e+00 -9.826000e+00
    endloop
  endfacet
  facet normal 0.000000e+00 -0.000000e+00 -1.000000e+00
    outer loop
      vertex   9.000000e+00 -2.500997e+00 -9.826000e+00
      vertex   1.400000e+01 -4.032523e+00 -9.826000e+00
      vertex   -9.000000e+00 -4.032523e+00 -9.826000e+00
    endloop
  endfacet
  facet normal 0.000000e+00 0.000000e+00 -1.000000e+00
    outer loop
      vertex   9.000000e+00 -2.500997e+00 -9.826000e+00
      vertex   -9.000000e+00 -4.032523e+00 -9.826000e+00
      vertex   -9.000000e+00 -4.000000e+00 -9.826000e+00
    endloop
  endfacet
  facet normal 0.000000e+00 0.000000e+00 -1.000000e+00
    outer loop
      vertex   -9.000000e+00 -4.000000e+00 -9.826000e+00
      vertex   -1.400000e+01 -4.000000e+00 -9.826000e+00
      vertex   -9.000000e+00 -2.500997e+00 -9.826000e+00
    endloop
  endfacet
  facet normal -0.000000e+00 0.000000e+00 -1.000000e+00
    outer loop
      vertex   -9.000000e+00 -2.500997e+00 -9.826000e+00
      vertex   -1.400000e+01 -4.000000e+00 -9.826000e+00
      vertex   -1.400000e+01 -2.500997e+00 -9.826000e+00
    endloop
  endfacet
  facet normal 0.000000e+00 1.000000e+00 0.000000e+00
    outer loop
      vertex   -9.000000e+00 3.000000e+00 -9.826000e+00
      vertex   -9.000000e+00 3.000000e+00 9.826000e+00
      vertex   -6.000000e+00 3.000000e+00 -9.826000e+00
    endloop
  endfacet
  facet normal 0.000000e+00 1.000000e+00 -0.000000e+00
    outer loop
      vertex   -6.000000e+00 3.000000e+00 -9.826000e+00
      vertex   -9.000000e+00 3.000000e+00 9.826000e+00
      vertex   -6.000000e+00 3.000000e+00 9.826000e+00
    endloop
  endfacet
  facet normal 0.000000e+00 1.000000e+00 0.000000e+00
    outer loop
      vertex   6.000000e+00 9.674768e-01 -9.826000e+00
      vertex   6.000000e+00 9.674768e-01 9.826000e+00
      vertex   8.000000e+00 9.674768e-01 -9.826000e+00
    endloop
  endfacet
  facet normal 0.000000e+00 1.000000e+00 -0.000000e+00
    outer loop
      vertex   8.000000e+00 9.674768e-01 -9.826000e+00
      vertex   6.000000e+00 9.674768e-01 9.826000e+00
      vertex   8.000000e+00 9.674768e-01 9.826000e+00
    endloop
  endfacet
  facet normal -1.000000e+00 0.000000e+00 0.000000e+00
    outer loop
      vertex   8.000000e+00 9.674768e-01 9.826000e+00
      vertex   8.000000e+00 2.000000e+00 9.826000e+00
      vertex   8.000000e+00 9.674768e-01 -9.826000e+00
    endloop
  endfacet
  facet normal -1.000000e+00 0.000000e+00 0.000000e+00
    outer loop
      vertex   8.000000e+00 9.674768e-01 -9.826000e+00
      vertex   8.000000e+00 2.000000e+00 9.826000e+00
      vertex   8.000000e+00 2.000000e+00 -9.826000e+00
    endloop
  endfacet
  facet normal 0.000000e+00 -1.000000e+00 0.000000e+00
    outer loop
      vertex   8.000000e+00 2.000000e+00 -9.826000e+00
      vertex   8.000000e+00 2.000000e+00 9.826000e+00
      vertex   6.000000e+00 2.000000e+00 -9.826000e+00
    endloop
  endfacet
  facet normal 0.000000e+00 -1.000000e+00 0.000000e+00
    outer loop
      vertex   6.000000e+00 2.000000e+00 -9.826000e+00
      vertex   8.000000e+00 2.000000e+00 9.826000e+00
      vertex   6.000000e+00 2.000000e+00 9.826000e+00
    endloop
  endfacet
  facet normal 0.000000e+00 1.000000e+00 0.000000e+00
    outer loop
      vertex   6.000000e+00 3.000000e+00 -9.826000e+00
      vertex   6.000000e+00 3.000000e+00 9.826000e+00
      vertex   9.000000e+00 3.000000e+00 -9.826000e+00
    endloop
  endfacet
  facet normal 0.000000e+00 1.000000e+00 -0.000000e+00
    outer loop
      vertex   9.000000e+00 3.000000e+00 -9.826000e+00
      vertex   6.000000e+00 3.000000e+00 9.826000e+00
      vertex   9.000000e+00 3.000000e+00 9.826000e+00
    endloop
  endfacet
  facet normal 1.000000e+00 0.000000e+00 0.000000e+00
    outer loop
      vertex   -8.000000e+00 9.674768e-01 -9.826000e+00
      vertex   -8.000000e+00 2.000000e+00 -9.826000e+00
      vertex   -8.000000e+00 9.674768e-01 9.826000e+00
    endloop
  endfacet
  facet normal 1.000000e+00 -0.000000e+00 0.000000e+00
    outer loop
      vertex   -8.000000e+00 9.674768e-01 9.826000e+00
      vertex   -8.000000e+00 2.000000e+00 -9.826000e+00
      vertex   -8.000000e+00 2.000000e+00 9.826000e+00
    endloop
  endfacet
  facet normal 0.000000e+00 1.000000e+00 0.000000e+00
    outer loop
      vertex   -9.000000e+00 -2.500997e+00 9.826000e+00
      vertex   -9.000000e+00 -2.500997e+00 -9.826000e+00
      vertex   -1.400000e+01 -2.500997e+00 9.826000e+00
    endloop
  endfacet
  facet normal 0.000000e+00 1.000000e+00 0.000000e+00
    outer loop
      vertex   -1.400000e+01 -2.500997e+00 9.826000e+00
      vertex   -9.000000e+00 -2.500997e+00 -9.826000e+00
      vertex   -1.400000e+01 -2.500997e+00 -9.826000e+00
    endloop
  endfacet
  facet normal 0.000000e+00 -1.000000e+00 0.000000e+00
    outer loop
      vertex   -9.000000e+00 -4.000000e+00 -9.826000e+00
      vertex   -9.000000e+00 -4.000000e+00 9.826000e+00
      vertex   -1.400000e+01 -4.000000e+00 -9.826000e+00
    endloop
  endfacet
  facet normal 0.000000e+00 -1.000000e+00 0.000000e+00
    outer loop
      vertex   -1.400000e+01 -4.000000e+00 -9.826000e+00
      vertex   -9.000000e+00 -4.000000e+00 9.826000e+00
      vertex   -1.400000e+01 -4.000000e+00 9.826000e+00
    endloop
  endfacet
  facet normal -1.000000e+00 0.000000e+00 0.000000e+00
    outer loop
      vertex   -1.400000e+01 -4.000000e+00 -9.826000e+00
      vertex   -1.400000e+01 -4.000000e+00 9.826000e+00
      vertex   -1.400000e+01 -2.500997e+00 -9.826000e+00
    endloop
  endfacet
  facet normal -1.000000e+00 0.000000e+00 0.000000e+00
    outer loop
      vertex   -1.400000e+01 -2.500997e+00 -9.826000e+00
      vertex   -1.400000e+01 -4.000000e+00 9.826000e+00
      vertex   -1.400000e+01 -2.500997e+00 9.826000e+00
    endloop
  endfacet
  facet normal -1.000000e+00 -5.417622e-09 -0.000000e+00
    outer loop
      vertex   -9.000000e+00 -2.500997e+00 9.826000e+00
      vertex   -9.000000e+00 3.000000e+00 9.826000e+00
      vertex   -9.000000e+00 -2.500997e+00 -9.826000e+00
    endloop
  endfacet
  facet normal -1.000000e+00 -5.417622e-09 0.000000e+00
    outer loop
      vertex   -9.000000e+00 -2.500997e+00 -9.826000e+00
      vertex   -9.000000e+00 3.000000e+00 9.826000e+00
      vertex   -9.000000e+00 3.000000e+00 -9.826000e+00
    endloop
  endfacet
  facet normal -1.000000e+00 9.163401e-07 0.000000e+00
    outer loop
      vertex   -9.000000e+00 -4.000000e+00 -9.826000e+00
      vertex   -9.000000e+00 -4.032523e+00 -9.826000e+00
      vertex   -9.000000e+00 -4.000000e+00 9.826000e+00
    endloop
  endfacet
  facet normal -1.000000e+00 9.163401e-07 0.000000e+00
    outer loop
      vertex   -9.000000e+00 -4.000000e+00 9.826000e+00
      vertex   -9.000000e+00 -4.032523e+00 -9.826000e+00
      vertex   -9.000000e+00 -4.032523e+00 9.826000e+00
    endloop
  endfacet
  facet normal 0.000000e+00 1.000000e+00 0.000000e+00
    outer loop
      vertex   9.000000e+00 -2.500997e+00 -9.826000e+00
      vertex   9.000000e+00 -2.500997e+00 9.826000e+00
      vertex   1.400000e+01 -2.500997e+00 -9.826000e+00
    endloop
  endfacet
  facet normal 0.000000e+00 1.000000e+00 -0.000000e+00
    outer loop
      vertex   1.400000e+01 -2.500997e+00 -9.826000e+00
      vertex   9.000000e+00 -2.500997e+00 9.826000e+00
      vertex   1.400000e+01 -2.500997e+00 9.826000e+00
    endloop
  endfacet
  facet normal 1.000000e+00 0.000000e+00 -0.000000e+00
    outer loop
      vertex   1.400000e+01 -2.500997e+00 -9.826000e+00
      vertex   1.400000e+01 -2.500997e+00 9.826000e+00
      vertex   1.400000e+01 -4.032523e+00 -9.826000e+00
    endloop
  endfacet
  facet normal 1.000000e+00 0.000000e+00 0.000000e+00
    outer loop
      vertex   1.400000e+01 -4.032523e+00 -9.826000e+00
      vertex   1.400000e+01 -2.500997e+00 9.826000e+00
      vertex   1.400000e+01 -4.032523e+00 9.826000e+00
    endloop
  endfacet
  facet normal 1.000000e+00 0.000000e+00 0.000000e+00
    outer loop
      vertex   9.000000e+00 -2.500997e+00 -9.826000e+00
      vertex   9.000000e+00 3.000000e+00 -9.826000e+00
      vertex   9.000000e+00 -2.500997e+00 9.826000e+00
    endloop
  endfacet
  facet normal 1.000000e+00 -0.000000e+00 0.000000e+00
    outer loop
      vertex   9.000000e+00 -2.500997e+00 9.826000e+00
      vertex   9.000000e+00 3.000000e+00 -9.826000e+00
      vertex   9.000000e+00 3.000000e+00 9.826000e+00
    endloop
  endfacet
  facet normal 0.000000e+00 1.000000e+00 0.000000e+00
    outer loop
      vertex   -6.000000e+00 -1.832523e+00 -9.826000e+00
      vertex   -6.000000e+00 -1.832523e+00 9.826000e+00
      vertex   6.000000e+00 -1.832523e+00 -9.826000e+00
    endloop
  endfacet
  facet normal 0.000000e+00 1.000000e+00 -0.000000e+00
    outer loop
      vertex   6.000000e+00 -1.832523e+00 -9.826000e+00
      vertex   -6.000000e+00 -1.832523e+00 9.826000e+00
      vertex   6.000000e+00 -1.832523e+00 9.826000e+00
    endloop
  endfacet
  facet normal 0.000000e+00 -0.000000e+00 1.000000e+00
    outer loop
      vertex   -6.000000e+00 2.000000e+00 9.826000e+00
      vertex   -6.000000e+00 3.000000e+00 9.826000e+00
      vertex   -8.000000e+00 2.000000e+00 9.826000e+00
    endloop
  endfacet
  facet normal 0.000000e+00 -0.000000e+00 1.000000e+00
    outer loop
      vertex   -8.000000e+00 2.000000e+00 9.826000e+00
      vertex   -6.000000e+00 3.000000e+00 9.826000e+00
      vertex   -9.000000e+00 3.000000e+00 9.826000e+00
    endloop
  endfacet
  facet normal 0.000000e+00 0.000000e+00 1.000000e+00
    outer loop
      vertex   -8.000000e+00 2.000000e+00 9.826000e+00
      vertex   -9.000000e+00 3.000000e+00 9.826000e+00
      vertex   -8.000000e+00 9.674768e-01 9.826000e+00
    endloop
  endfacet
  facet normal 0.000000e+00 0.000000e+00 1.000000e+00
    outer loop
      vertex   -8.000000e+00 9.674768e-01 9.826000e+00
      vertex   -9.000000e+00 3.000000e+00 9.826000e+00
      vertex   -9.000000e+00 -2.500997e+00 9.826000e+00
    endloop
  endfacet
  facet normal 0.000000e+00 0.000000e+00 1.000000e+00
    outer loop
      vertex   -8.000000e+00 9.674768e-01 9.826000e+00
      vertex   -9.000000e+00 -2.500997e+00 9.826000e+00
      vertex   -6.000000e+00 -1.832523e+00 9.826000e+00
    endloop
  endfacet
  facet normal 0.000000e+00 0.000000e+00 1.000000e+00
    outer loop
      vertex   -6.000000e+00 -1.832523e+00 9.826000e+00
      vertex   -9.000000e+00 -2.500997e+00 9.826000e+00
      vertex   -9.000000e+00 -4.000000e+00 9.826000e+00
    endloop
  endfacet
  facet normal -0.000000e+00 0.000000e+00 1.000000e+00
    outer loop
      vertex   -6.000000e+00 -1.832523e+00 9.826000e+00
      vertex   -9.000000e+00 -4.000000e+00 9.826000e+00
      vertex   6.000000e+00 -1.832523e+00 9.826000e+00
    endloop
  endfacet
  facet normal 0.000000e+00 0.000000e+00 1.000000e+00
    outer loop
      vertex   6.000000e+00 -1.832523e+00 9.826000e+00
      vertex   -9.000000e+00 -4.000000e+00 9.826000e+00
      vertex   9.000000e+00 -2.500997e+00 9.826000e+00
    endloop
  endfacet
  facet normal -0.000000e+00 0.000000e+00 1.000000e+00
    outer loop
      vertex   6.000000e+00 -1.832523e+00 9.826000e+00
      vertex   9.000000e+00 -2.500997e+00 9.826000e+00
      vertex   8.000000e+00 9.674768e-01 9.826000e+00
    endloop
  endfacet
  facet normal -0.000000e+00 0.000000e+00 1.000000e+00
    outer loop
      vertex   8.000000e+00 9.674768e-01 9.826000e+00
      vertex   9.000000e+00 -2.500997e+00 9.826000e+00
      vertex   9.000000e+00 3.000000e+00 9.826000e+00
    endloop
  endfacet
  facet normal 0.000000e+00 0.000000e+00 1.000000e+00
    outer loop
      vertex   8.000000e+00 9.674768e-01 9.826000e+00
      vertex   9.000000e+00 3.000000e+00 9.826000e+00
      vertex   8.000000e+00 2.000000e+00 9.826000e+00
    endloop
  endfacet
  facet normal 0.000000e+00 -0.000000e+00 1.000000e+00
    outer loop
      vertex   8.000000e+00 2.000000e+00 9.826000e+00
      vertex   9.000000e+00 3.000000e+00 9.826000e+00
      vertex   6.000000e+00 3.000000e+00 9.826000e+00
    endloop
  endfacet
  facet normal 0.000000e+00 0.000000e+00 1.000000e+00
    outer loop
      vertex   8.000000e+00 2.000000e+00 9.826000e+00
      vertex   6.000000e+00 3.000000e+00 9.826000e+00
      vertex   6.000000e+00 2.000000e+00 9.826000e+00
    endloop
  endfacet
  facet normal 0.000000e+00 0.000000e+00 1.000000e+00
    outer loop
      vertex   -9.000000e+00 -2.500997e+00 9.826000e+00
      vertex   -1.400000e+01 -2.500997e+00 9.826000e+00
      vertex   -9.000000e+00 -4.000000e+00 9.826000e+00
    endloop
  endfacet
  facet normal 0.000000e+00 0.000000e+00 1.000000e+00
    outer loop
      vertex   -9.000000e+00 -4.000000e+00 9.826000e+00
      vertex   -1.400000e+01 -2.500997e+00 9.826000e+00
      vertex   -1.400000e+01 -4.000000e+00 9.826000e+00
    endloop
  endfacet
  facet normal -0.000000e+00 0.000000e+00 1.000000e+00
    outer loop
      vertex   -9.000000e+00 -4.000000e+00 9.826000e+00
      vertex   -9.000000e+00 -4.032523e+00 9.826000e+00
      vertex   9.000000e+00 -2.500997e+00 9.826000e+00
    endloop
  endfacet
  facet normal 0.000000e+00 0.000000e+00 1.000000e+00
    outer loop
      vertex   9.000000e+00 -2.500997e+00 9.826000e+00
      vertex   -9.000000e+00 -4.032523e+00 9.826000e+00
      vertex   1.400000e+01 -4.032523e+00 9.826000e+00
    endloop
  endfacet
  facet normal -0.000000e+00 0.000000e+00 1.000000e+00
    outer loop
      vertex   9.000000e+00 -2.500997e+00 9.826000e+00
      vertex   1.400000e+01 -4.032523e+00 9.826000e+00
      vertex   1.400000e+01 -2.500997e+00 9.826000e+00
    endloop
  endfacet
  facet normal 0.000000e+00 0.000000e+00 1.000000e+00
    outer loop
      vertex   8.000000e+00 9.674768e-01 9.826000e+00
      vertex   6.000000e+00 9.674768e-01 9.826000e+00
      vertex   6.000000e+00 -1.832523e+00 9.826000e+00
    endloop
  endfacet
  facet normal 0.000000e+00 -0.000000e+00 1.000000e+00
    outer loop
      vertex   -6.000000e+00 -1.832523e+00 9.826000e+00
      vertex   -6.000000e+00 9.674768e-01 9.826000e+00
      vertex   -8.000000e+00 9.674768e-01 9.826000e+00
    endloop
  endfacet
  facet normal -1.000000e+00 0.000000e+00 0.000000e+00
    outer loop
      vertex   6.000000e+00 2.000000e+00 9.826000e+00
      vertex   6.000000e+00 3.000000e+00 9.826000e+00
      vertex   6.000000e+00 2.000000e+00 -9.826000e+00
    endloop
  endfacet
  facet normal -1.000000e+00 0.000000e+00 0.000000e+00
    outer loop
      vertex   6.000000e+00 2.000000e+00 -9.826000e+00
      vertex   6.000000e+00 3.000000e+00 9.826000e+00
      vertex   6.000000e+00 3.000000e+00 -9.826000e+00
    endloop
  endfacet
  facet normal -1.000000e+00 -2.128737e-08 -0.000000e+00
    outer loop
      vertex   6.000000e+00 -1.832523e+00 9.826000e+00
      vertex   6.000000e+00 9.674768e-01 9.826000e+00
      vertex   6.000000e+00 -1.832523e+00 -9.826000e+00
    endloop
  endfacet
  facet normal -1.000000e+00 -2.128737e-08 1.924179e-25
    outer loop
      vertex   6.000000e+00 -1.832523e+00 -9.826000e+00
      vertex   6.000000e+00 9.674768e-01 9.826000e+00
      vertex   6.000000e+00 9.674768e-01 -9.826000e+00
    endloop
  endfacet
  facet normal 1.000000e+00 0.000000e+00 0.000000e+00
    outer loop
      vertex   -6.000000e+00 -1.832523e+00 -9.826000e+00
      vertex   -6.000000e+00 9.674768e-01 -9.826000e+00
      vertex   -6.000000e+00 -1.832523e+00 9.826000e+00
    endloop
  endfacet
  facet normal 1.000000e+00 -0.000000e+00 0.000000e+00
    outer loop
      vertex   -6.000000e+00 -1.832523e+00 9.826000e+00
      vertex   -6.000000e+00 9.674768e-01 -9.826000e+00
      vertex   -6.000000e+00 9.674768e-01 9.826000e+00
    endloop
  endfacet
  facet normal 0.000000e+00 -1.000000e+00 0.000000e+00
    outer loop
      vertex   -9.000000e+00 -4.032523e+00 9.826000e+00
      vertex   -9.000000e+00 -4.032523e+00 -9.826000e+00
      vertex   1.400000e+01 -4.032523e+00 9.826000e+00
    endloop
  endfacet
  facet normal -7.723291e-17 -1.000000e+00 9.039064e-17
    outer loop
      vertex   1.400000e+01 -4.032523e+00 9.826000e+00
      vertex   -9.000000e+00 -4.032523e+00 -9.826000e+00
      vertex   1.400000e+01 -4.032523e+00 -9.826000e+00
    endloop
  endfacet
endsolid
