solid ASCII
  facet normal 0.000000e+00 -1.000000e+00 0.000000e+00
    outer loop
      vertex   -8.761000e+00 1.000000e+00 -9.826000e+00
      vertex   -6.000000e+00 1.000000e+00 -9.826000e+00
      vertex   -8.761000e+00 1.000000e+00 9.826000e+00
    endloop
  endfacet
  facet normal 0.000000e+00 -1.000000e+00 0.000000e+00
    outer loop
      vertex   -8.761000e+00 1.000000e+00 9.826000e+00
      vertex   -6.000000e+00 1.000000e+00 -9.826000e+00
      vertex   -6.000000e+00 1.000000e+00 9.826000e+00
    endloop
  endfacet
  facet normal 1.000000e+00 0.000000e+00 0.000000e+00
    outer loop
      vertex   -8.761000e+00 1.000000e+00 9.826000e+00
      vertex   -8.761000e+00 -1.000000e+00 9.826000e+00
      vertex   -8.761000e+00 1.000000e+00 -9.826000e+00
    endloop
  endfacet
  facet normal 1.000000e+00 0.000000e+00 0.000000e+00
    outer loop
      vertex   -8.761000e+00 1.000000e+00 -9.826000e+00
      vertex   -8.761000e+00 -1.000000e+00 9.826000e+00
      vertex   -8.761000e+00 -1.000000e+00 -9.826000e+00
    endloop
  endfacet
  facet normal -1.000000e+00 0.000000e+00 0.000000e+00
    outer loop
      vertex   8.761000e+00 1.000000e+00 -9.826000e+00
      vertex   8.761000e+00 -1.000000e+00 -9.826000e+00
      vertex   8.761000e+00 1.000000e+00 9.826000e+00
    endloop
  endfacet
  facet normal -1.000000e+00 -0.000000e+00 0.000000e+00
    outer loop
      vertex   8.761000e+00 1.000000e+00 9.826000e+00
      vertex   8.761000e+00 -1.000000e+00 -9.826000e+00
      vertex   8.761000e+00 -1.000000e+00 9.826000e+00
    endloop
  endfacet
  facet normal -0.000000e+00 -1.000000e+00 -0.000000e+00
    outer loop
      vertex   8.761000e+00 1.000000e+00 9.826000e+00
      vertex   6.000000e+00 1.000000e+00 9.826000e+00
      vertex   8.761000e+00 1.000000e+00 -9.826000e+00
    endloop
  endfacet
  facet normal 0.000000e+00 -1.000000e+00 0.000000e+00
    outer loop
      vertex   8.761000e+00 1.000000e+00 -9.826000e+00
      vertex   6.000000e+00 1.000000e+00 9.826000e+00
      vertex   6.000000e+00 1.000000e+00 -9.826000e+00
    endloop
  endfacet
  facet normal 0.000000e+00 1.000000e+00 0.000000e+00
    outer loop
      vertex   -9.761000e+00 -2.500997e+00 9.826000e+00
      vertex   -9.761000e+00 -2.500997e+00 -9.826000e+00
      vertex   -1.323900e+01 -2.500997e+00 9.826000e+00
    endloop
  endfacet
  facet normal 0.000000e+00 1.000000e+00 0.000000e+00
    outer loop
      vertex   -1.323900e+01 -2.500997e+00 9.826000e+00
      vertex   -9.761000e+00 -2.500997e+00 -9.826000e+00
      vertex   -1.323900e+01 -2.500997e+00 -9.826000e+00
    endloop
  endfacet
  facet normal -1.000000e+00 0.000000e+00 0.000000e+00
    outer loop
      vertex   -1.323900e+01 -4.000000e+00 -9.826000e+00
      vertex   -1.323900e+01 -4.000000e+00 9.826000e+00
      vertex   -1.323900e+01 -2.500997e+00 -9.826000e+00
    endloop
  endfacet
  facet normal -1.000000e+00 0.000000e+00 0.000000e+00
    outer loop
      vertex   -1.323900e+01 -2.500997e+00 -9.826000e+00
      vertex   -1.323900e+01 -4.000000e+00 9.826000e+00
      vertex   -1.323900e+01 -2.500997e+00 9.826000e+00
    endloop
  endfacet
  facet normal 0.000000e+00 -0.000000e+00 1.000000e+00
    outer loop
      vertex   -6.000000e+00 1.000000e+00 9.826000e+00
      vertex   -6.000000e+00 2.000000e+00 9.826000e+00
      vertex   -8.761000e+00 1.000000e+00 9.826000e+00
    endloop
  endfacet
  facet normal 0.000000e+00 -0.000000e+00 1.000000e+00
    outer loop
      vertex   -8.761000e+00 1.000000e+00 9.826000e+00
      vertex   -6.000000e+00 2.000000e+00 9.826000e+00
      vertex   -9.761000e+00 2.000000e+00 9.826000e+00
    endloop
  endfacet
  facet normal 0.000000e+00 0.000000e+00 1.000000e+00
    outer loop
      vertex   -8.761000e+00 1.000000e+00 9.826000e+00
      vertex   -9.761000e+00 2.000000e+00 9.826000e+00
      vertex   -8.761000e+00 -1.000000e+00 9.826000e+00
    endloop
  endfacet
  facet normal 0.000000e+00 0.000000e+00 1.000000e+00
    outer loop
      vertex   -8.761000e+00 -1.000000e+00 9.826000e+00
      vertex   -9.761000e+00 2.000000e+00 9.826000e+00
      vertex   -9.761000e+00 -2.500997e+00 9.826000e+00
    endloop
  endfacet
  facet normal -0.000000e+00 0.000000e+00 1.000000e+00
    outer loop
      vertex   -8.761000e+00 -1.000000e+00 9.826000e+00
      vertex   -9.761000e+00 -2.500997e+00 9.826000e+00
      vertex   -6.000000e+00 -1.000000e+00 9.826000e+00
    endloop
  endfacet
  facet normal 0.000000e+00 0.000000e+00 1.000000e+00
    outer loop
      vertex   -6.000000e+00 -1.000000e+00 9.826000e+00
      vertex   -9.761000e+00 -2.500997e+00 9.826000e+00
      vertex   -6.000000e+00 -2.800000e+00 9.826000e+00
    endloop
  endfacet
  facet normal 0.000000e+00 0.000000e+00 1.000000e+00
    outer loop
      vertex   -6.000000e+00 -2.800000e+00 9.826000e+00
      vertex   -9.761000e+00 -2.500997e+00 9.826000e+00
      vertex   -1.323900e+01 -4.000000e+00 9.826000e+00
    endloop
  endfacet
  facet normal -0.000000e+00 0.000000e+00 1.000000e+00
    outer loop
      vertex   -6.000000e+00 -2.800000e+00 9.826000e+00
      vertex   -1.323900e+01 -4.000000e+00 9.826000e+00
      vertex   6.000000e+00 -2.800000e+00 9.826000e+00
    endloop
  endfacet
  facet normal 0.000000e+00 0.000000e+00 1.000000e+00
    outer loop
      vertex   6.000000e+00 -2.800000e+00 9.826000e+00
      vertex   -1.323900e+01 -4.000000e+00 9.826000e+00
      vertex   1.476100e+01 -4.000000e+00 9.826000e+00
    endloop
  endfacet
  facet normal -0.000000e+00 0.000000e+00 1.000000e+00
    outer loop
      vertex   6.000000e+00 -2.800000e+00 9.826000e+00
      vertex   1.476100e+01 -4.000000e+00 9.826000e+00
      vertex   9.761000e+00 -2.500997e+00 9.826000e+00
    endloop
  endfacet
  facet normal -0.000000e+00 0.000000e+00 1.000000e+00
    outer loop
      vertex   9.761000e+00 -2.500997e+00 9.826000e+00
      vertex   1.476100e+01 -4.000000e+00 9.826000e+00
      vertex   1.476100e+01 -2.500997e+00 9.826000e+00
    endloop
  endfacet
  facet normal 0.000000e+00 0.000000e+00 1.000000e+00
    outer loop
      vertex   -9.761000e+00 -2.500997e+00 9.826000e+00
      vertex   -1.323900e+01 -2.500997e+00 9.826000e+00
      vertex   -1.323900e+01 -4.000000e+00 9.826000e+00
    endloop
  endfacet
  facet normal 0.000000e+00 0.000000e+00 1.000000e+00
    outer loop
      vertex   9.761000e+00 2.000000e+00 9.826000e+00
      vertex   8.761000e+00 -1.000000e+00 9.826000e+00
      vertex   9.761000e+00 -2.500997e+00 9.826000e+00
    endloop
  endfacet
  facet normal 0.000000e+00 0.000000e+00 1.000000e+00
    outer loop
      vertex   9.761000e+00 -2.500997e+00 9.826000e+00
      vertex   8.761000e+00 -1.000000e+00 9.826000e+00
      vertex   6.000000e+00 -1.000000e+00 9.826000e+00
    endloop
  endfacet
  facet normal 0.000000e+00 0.000000e+00 1.000000e+00
    outer loop
      vertex   9.761000e+00 -2.500997e+00 9.826000e+00
      vertex   6.000000e+00 -1.000000e+00 9.826000e+00
      vertex   6.000000e+00 -2.800000e+00 9.826000e+00
    endloop
  endfacet
  facet normal 0.000000e+00 0.000000e+00 1.000000e+00
    outer loop
      vertex   8.761000e+00 -1.000000e+00 9.826000e+00
      vertex   9.761000e+00 2.000000e+00 9.826000e+00
      vertex   8.761000e+00 1.000000e+00 9.826000e+00
    endloop
  endfacet
  facet normal 0.000000e+00 -0.000000e+00 1.000000e+00
    outer loop
      vertex   8.761000e+00 1.000000e+00 9.826000e+00
      vertex   9.761000e+00 2.000000e+00 9.826000e+00
      vertex   6.000000e+00 2.000000e+00 9.826000e+00
    endloop
  endfacet
  facet normal 0.000000e+00 0.000000e+00 1.000000e+00
    outer loop
      vertex   8.761000e+00 1.000000e+00 9.826000e+00
      vertex   6.000000e+00 2.000000e+00 9.826000e+00
      vertex   6.000000e+00 1.000000e+00 9.826000e+00
    endloop
  endfacet
  facet normal 0.000000e+00 -1.000000e+00 0.000000e+00
    outer loop
      vertex   1.476100e+01 -4.000000e+00 -9.826000e+00
      vertex   1.476100e+01 -4.000000e+00 9.826000e+00
      vertex   -1.323900e+01 -4.000000e+00 -9.826000e+00
    endloop
  endfacet
  facet normal 0.000000e+00 -1.000000e+00 0.000000e+00
    outer loop
      vertex   -1.323900e+01 -4.000000e+00 -9.826000e+00
      vertex   1.476100e+01 -4.000000e+00 9.826000e+00
      vertex   -1.323900e+01 -4.000000e+00 9.826000e+00
    endloop
  endfacet
  facet normal 0.000000e+00 1.000000e+00 0.000000e+00
    outer loop
      vertex   9.761000e+00 -2.500997e+00 -9.826000e+00
      vertex   9.761000e+00 -2.500997e+00 9.826000e+00
      vertex   1.476100e+01 -2.500997e+00 -9.826000e+00
    endloop
  endfacet
  facet normal 0.000000e+00 1.000000e+00 -0.000000e+00
    outer loop
      vertex   1.476100e+01 -2.500997e+00 -9.826000e+00
      vertex   9.761000e+00 -2.500997e+00 9.826000e+00
      vertex   1.476100e+01 -2.500997e+00 9.826000e+00
    endloop
  endfacet
  facet normal 1.000000e+00 0.000000e+00 -0.000000e+00
    outer loop
      vertex   1.476100e+01 -2.500997e+00 -9.826000e+00
      vertex   1.476100e+01 -2.500997e+00 9.826000e+00
      vertex   1.476100e+01 -4.000000e+00 -9.826000e+00
    endloop
  endfacet
  facet normal 1.000000e+00 0.000000e+00 0.000000e+00
    outer loop
      vertex   1.476100e+01 -4.000000e+00 -9.826000e+00
      vertex   1.476100e+01 -2.500997e+00 9.826000e+00
      vertex   1.476100e+01 -4.000000e+00 9.826000e+00
    endloop
  endfacet
  facet normal 1.000000e+00 0.000000e+00 0.000000e+00
    outer loop
      vertex   9.761000e+00 -2.500997e+00 -9.826000e+00
      vertex   9.761000e+00 2.000000e+00 -9.826000e+00
      vertex   9.761000e+00 -2.500997e+00 9.826000e+00
    endloop
  endfacet
  facet normal 1.000000e+00 -0.000000e+00 0.000000e+00
    outer loop
      vertex   9.761000e+00 -2.500997e+00 9.826000e+00
      vertex   9.761000e+00 2.000000e+00 -9.826000e+00
      vertex   9.761000e+00 2.000000e+00 9.826000e+00
    endloop
  endfacet
  facet normal 0.000000e+00 1.000000e+00 0.000000e+00
    outer loop
      vertex   -6.000000e+00 -2.800000e+00 -9.826000e+00
      vertex   -6.000000e+00 -2.800000e+00 9.826000e+00
      vertex   6.000000e+00 -2.800000e+00 -9.826000e+00
    endloop
  endfacet
  facet normal 0.000000e+00 1.000000e+00 -0.000000e+00
    outer loop
      vertex   6.000000e+00 -2.800000e+00 -9.826000e+00
      vertex   -6.000000e+00 -2.800000e+00 9.826000e+00
      vertex   6.000000e+00 -2.800000e+00 9.826000e+00
    endloop
  endfacet
  facet normal -1.000000e+00 0.000000e+00 0.000000e+00
    outer loop
      vertex   6.000000e+00 1.000000e+00 9.826000e+00
      vertex   6.000000e+00 2.000000e+00 9.826000e+00
      vertex   6.000000e+00 1.000000e+00 -9.826000e+00
    endloop
  endfacet
  facet normal -1.000000e+00 0.000000e+00 0.000000e+00
    outer loop
      vertex   6.000000e+00 1.000000e+00 -9.826000e+00
      vertex   6.000000e+00 2.000000e+00 9.826000e+00
      vertex   6.000000e+00 2.000000e+00 -9.826000e+00
    endloop
  endfacet
  facet normal -0.000000e+00 1.000000e+00 0.000000e+00
    outer loop
      vertex   6.000000e+00 2.000000e+00 9.826000e+00
      vertex   9.761000e+00 2.000000e+00 9.826000e+00
      vertex   6.000000e+00 2.000000e+00 -9.826000e+00
    endloop
  endfacet
  facet normal 0.000000e+00 1.000000e+00 0.000000e+00
    outer loop
      vertex   6.000000e+00 2.000000e+00 -9.826000e+00
      vertex   9.761000e+00 2.000000e+00 9.826000e+00
      vertex   9.761000e+00 2.000000e+00 -9.826000e+00
    endloop
  endfacet
  facet normal -1.000000e+00 -3.311369e-08 -0.000000e+00
    outer loop
      vertex   6.000000e+00 -2.800000e+00 9.826000e+00
      vertex   6.000000e+00 -1.000000e+00 9.826000e+00
      vertex   6.000000e+00 -2.800000e+00 -9.826000e+00
    endloop
  endfacet
  facet normal -1.000000e+00 -3.311369e-08 -7.482921e-26
    outer loop
      vertex   6.000000e+00 -2.800000e+00 -9.826000e+00
      vertex   6.000000e+00 -1.000000e+00 9.826000e+00
      vertex   6.000000e+00 -1.000000e+00 -9.826000e+00
    endloop
  endfacet
  facet normal -0.000000e+00 1.000000e+00 0.000000e+00
    outer loop
      vertex   6.000000e+00 -1.000000e+00 9.826000e+00
      vertex   8.761000e+00 -1.000000e+00 9.826000e+00
      vertex   6.000000e+00 -1.000000e+00 -9.826000e+00
    endloop
  endfacet
  facet normal 0.000000e+00 1.000000e+00 0.000000e+00
    outer loop
      vertex   6.000000e+00 -1.000000e+00 -9.826000e+00
      vertex   8.761000e+00 -1.000000e+00 9.826000e+00
      vertex   8.761000e+00 -1.000000e+00 -9.826000e+00
    endloop
  endfacet
  facet normal 1.000000e+00 0.000000e+00 0.000000e+00
    outer loop
      vertex   -6.000000e+00 -2.800000e+00 -9.826000e+00
      vertex   -6.000000e+00 -1.000000e+00 -9.826000e+00
      vertex   -6.000000e+00 -2.800000e+00 9.826000e+00
    endloop
  endfacet
  facet normal 1.000000e+00 -0.000000e+00 0.000000e+00
    outer loop
      vertex   -6.000000e+00 -2.800000e+00 9.826000e+00
      vertex   -6.000000e+00 -1.000000e+00 -9.826000e+00
      vertex   -6.000000e+00 -1.000000e+00 9.826000e+00
    endloop
  endfacet
  facet normal 0.000000e+00 0.000000e+00 -1.000000e+00
    outer loop
      vertex   -6.000000e+00 1.000000e+00 -9.826000e+00
      vertex   -8.761000e+00 1.000000e+00 -9.826000e+00
      vertex   -6.000000e+00 2.000000e+00 -9.826000e+00
    endloop
  endfacet
  facet normal -0.000000e+00 0.000000e+00 -1.000000e+00
    outer loop
      vertex   -6.000000e+00 2.000000e+00 -9.826000e+00
      vertex   -8.761000e+00 1.000000e+00 -9.826000e+00
      vertex   -9.761000e+00 2.000000e+00 -9.826000e+00
    endloop
  endfacet
  facet normal 0.000000e+00 0.000000e+00 -1.000000e+00
    outer loop
      vertex   -9.761000e+00 2.000000e+00 -9.826000e+00
      vertex   -8.761000e+00 1.000000e+00 -9.826000e+00
      vertex   -8.761000e+00 -1.000000e+00 -9.826000e+00
    endloop
  endfacet
  facet normal 0.000000e+00 0.000000e+00 -1.000000e+00
    outer loop
      vertex   -9.761000e+00 2.000000e+00 -9.826000e+00
      vertex   -8.761000e+00 -1.000000e+00 -9.826000e+00
      vertex   -9.761000e+00 -2.500997e+00 -9.826000e+00
    endloop
  endfacet
  facet normal 0.000000e+00 0.000000e+00 -1.000000e+00
    outer loop
      vertex   -9.761000e+00 -2.500997e+00 -9.826000e+00
      vertex   -8.761000e+00 -1.000000e+00 -9.826000e+00
      vertex   -6.000000e+00 -1.000000e+00 -9.826000e+00
    endloop
  endfacet
  facet normal 0.000000e+00 0.000000e+00 -1.000000e+00
    outer loop
      vertex   -9.761000e+00 -2.500997e+00 -9.826000e+00
      vertex   -6.000000e+00 -1.000000e+00 -9.826000e+00
      vertex   -6.000000e+00 -2.800000e+00 -9.826000e+00
    endloop
  endfacet
  facet normal 0.000000e+00 -0.000000e+00 -1.000000e+00
    outer loop
      vertex   -9.761000e+00 -2.500997e+00 -9.826000e+00
      vertex   -6.000000e+00 -2.800000e+00 -9.826000e+00
      vertex   -1.323900e+01 -4.000000e+00 -9.826000e+00
    endloop
  endfacet
  facet normal 0.000000e+00 0.000000e+00 -1.000000e+00
    outer loop
      vertex   -1.323900e+01 -4.000000e+00 -9.826000e+00
      vertex   -6.000000e+00 -2.800000e+00 -9.826000e+00
      vertex   6.000000e+00 -2.800000e+00 -9.826000e+00
    endloop
  endfacet
  facet normal 0.000000e+00 0.000000e+00 -1.000000e+00
    outer loop
      vertex   -1.323900e+01 -4.000000e+00 -9.826000e+00
      vertex   6.000000e+00 -2.800000e+00 -9.826000e+00
      vertex   1.476100e+01 -4.000000e+00 -9.826000e+00
    endloop
  endfacet
  facet normal 0.000000e+00 0.000000e+00 -1.000000e+00
    outer loop
      vertex   1.476100e+01 -4.000000e+00 -9.826000e+00
      vertex   6.000000e+00 -2.800000e+00 -9.826000e+00
      vertex   9.761000e+00 -2.500997e+00 -9.826000e+00
    endloop
  endfacet
  facet normal 0.000000e+00 0.000000e+00 -1.000000e+00
    outer loop
      vertex   1.476100e+01 -4.000000e+00 -9.826000e+00
      vertex   9.761000e+00 -2.500997e+00 -9.826000e+00
      vertex   1.476100e+01 -2.500997e+00 -9.826000e+00
    endloop
  endfacet
  facet normal 0.000000e+00 0.000000e+00 -1.000000e+00
    outer loop
      vertex   6.000000e+00 -2.800000e+00 -9.826000e+00
      vertex   6.000000e+00 -1.000000e+00 -9.826000e+00
      vertex   9.761000e+00 -2.500997e+00 -9.826000e+00
    endloop
  endfacet
  facet normal 0.000000e+00 0.000000e+00 -1.000000e+00
    outer loop
      vertex   9.761000e+00 -2.500997e+00 -9.826000e+00
      vertex   6.000000e+00 -1.000000e+00 -9.826000e+00
      vertex   8.761000e+00 -1.000000e+00 -9.826000e+00
    endloop
  endfacet
  facet normal 0.000000e+00 0.000000e+00 -1.000000e+00
    outer loop
      vertex   9.761000e+00 -2.500997e+00 -9.826000e+00
      vertex   8.761000e+00 -1.000000e+00 -9.826000e+00
      vertex   9.761000e+00 2.000000e+00 -9.826000e+00
    endloop
  endfacet
  facet normal 0.000000e+00 0.000000e+00 -1.000000e+00
    outer loop
      vertex   9.761000e+00 2.000000e+00 -9.826000e+00
      vertex   8.761000e+00 -1.000000e+00 -9.826000e+00
      vertex   8.761000e+00 1.000000e+00 -9.826000e+00
    endloop
  endfacet
  facet normal -0.000000e+00 0.000000e+00 -1.000000e+00
    outer loop
      vertex   9.761000e+00 2.000000e+00 -9.826000e+00
      vertex   8.761000e+00 1.000000e+00 -9.826000e+00
      vertex   6.000000e+00 2.000000e+00 -9.826000e+00
    endloop
  endfacet
  facet normal 0.000000e+00 0.000000e+00 -1.000000e+00
    outer loop
      vertex   6.000000e+00 2.000000e+00 -9.826000e+00
      vertex   8.761000e+00 1.000000e+00 -9.826000e+00
      vertex   6.000000e+00 1.000000e+00 -9.826000e+00
    endloop
  endfacet
  facet normal 0.000000e+00 0.000000e+00 -1.000000e+00
    outer loop
      vertex   -1.323900e+01 -4.000000e+00 -9.826000e+00
      vertex   -1.323900e+01 -2.500997e+00 -9.826000e+00
      vertex   -9.761000e+00 -2.500997e+00 -9.826000e+00
    endloop
  endfacet
  facet normal -0.000000e+00 1.000000e+00 0.000000e+00
    outer loop
      vertex   -8.761000e+00 -1.000000e+00 9.826000e+00
      vertex   -6.000000e+00 -1.000000e+00 9.826000e+00
      vertex   -8.761000e+00 -1.000000e+00 -9.826000e+00
    endloop
  endfacet
  facet normal 0.000000e+00 1.000000e+00 0.000000e+00
    outer loop
      vertex   -8.761000e+00 -1.000000e+00 -9.826000e+00
      vertex   -6.000000e+00 -1.000000e+00 9.826000e+00
      vertex   -6.000000e+00 -1.000000e+00 -9.826000e+00
    endloop
  endfacet
  facet normal -1.000000e+00 0.000000e+00 0.000000e+00
    outer loop
      vertex   -9.761000e+00 -2.500997e+00 9.826000e+00
      vertex   -9.761000e+00 2.000000e+00 9.826000e+00
      vertex   -9.761000e+00 -2.500997e+00 -9.826000e+00
    endloop
  endfacet
  facet normal -1.000000e+00 0.000000e+00 0.000000e+00
    outer loop
      vertex   -9.761000e+00 -2.500997e+00 -9.826000e+00
      vertex   -9.761000e+00 2.000000e+00 9.826000e+00
      vertex   -9.761000e+00 2.000000e+00 -9.826000e+00
    endloop
  endfacet
  facet normal -0.000000e+00 1.000000e+00 0.000000e+00
    outer loop
      vertex   -9.761000e+00 2.000000e+00 9.826000e+00
      vertex   -6.000000e+00 2.000000e+00 9.826000e+00
      vertex   -9.761000e+00 2.000000e+00 -9.826000e+00
    endloop
  endfacet
  facet normal 0.000000e+00 1.000000e+00 0.000000e+00
    outer loop
      vertex   -9.761000e+00 2.000000e+00 -9.826000e+00
      vertex   -6.000000e+00 2.000000e+00 9.826000e+00
      vertex   -6.000000e+00 2.000000e+00 -9.826000e+00
    endloop
  endfacet
  facet normal 1.000000e+00 0.000000e+00 0.000000e+00
    outer loop
      vertex   -6.000000e+00 2.000000e+00 9.826000e+00
      vertex   -6.000000e+00 1.000000e+00 9.826000e+00
      vertex   -6.000000e+00 2.000000e+00 -9.826000e+00
    endloop
  endfacet
  facet normal 1.000000e+00 0.000000e+00 0.000000e+00
    outer loop
      vertex   -6.000000e+00 2.000000e+00 -9.826000e+00
      vertex   -6.000000e+00 1.000000e+00 9.826000e+00
      vertex   -6.000000e+00 1.000000e+00 -9.826000e+00
    endloop
  endfacet
endsolid
